<svg width="256" height="256" fill="none" xmlns="http://www.w3.org/2000/svg"><path d="M208 64h24v-8a16.017 16.017 0 0 0-16-16H40a16.018 16.018 0 0 0-16 16v8h24a8 8 0 0 1 0 16H24v96h24a8.001 8.001 0 0 1 5.657 13.657A8.001 8.001 0 0 1 48 192H24v8a16.017 16.017 0 0 0 16 16h176a16.016 16.016 0 0 0 16-16v-8h-24a8 8 0 1 1 0-16h24V80h-24a8 8 0 1 1 0-16ZM108 192H88a8.001 8.001 0 0 1-5.657-13.657A8.001 8.001 0 0 1 88 176h20a8 8 0 1 1 0 16Zm0-112H88a8 8 0 0 1 0-16h20a8 8 0 1 1 0 16Zm60 112h-20a8 8 0 1 1 0-16h20a8 8 0 1 1 0 16Zm0-112h-20a8 8 0 1 1 0-16h20a8 8 0 1 1 0 16Z" fill="#495340"/></svg>