<svg width="256" height="256" viewBox="0 0 256 256" fill="none" xmlns="http://www.w3.org/2000/svg">
<path d="M168.001 100V100.004C168.001 103.186 166.736 106.239 164.485 108.489C162.234 110.74 159.181 112.004 155.998 112.004C152.815 112.003 149.763 110.739 147.512 108.488C145.262 106.237 143.997 103.185 143.997 100.002C143.997 96.819 145.262 93.7664 147.512 91.5157C149.763 89.2649 152.815 88.0003 155.998 88.0001C159.181 87.9999 162.234 89.264 164.485 91.5145C166.736 93.7649 168.001 96.8173 168.001 100V100ZM232 56V200C231.995 204.242 230.308 208.309 227.308 211.308C224.309 214.308 220.242 215.995 216 216H40C35.758 215.995 31.6912 214.308 28.6917 211.308C25.6921 208.309 24.0049 204.242 24 200V56C24.0049 51.758 25.6921 47.6912 28.6917 44.6917C31.6912 41.6921 35.758 40.0049 40 40H216C220.242 40.0049 224.309 41.6921 227.308 44.6917C230.308 47.6912 231.995 51.758 232 56V56ZM216.008 164.694L216 56H40V148.686L76.6865 112C79.6896 109.004 83.7584 107.321 88.0005 107.321C92.2425 107.321 96.3114 109.004 99.3145 112L144.001 156.687L164.687 136C167.69 133.004 171.758 131.322 176.001 131.322C180.243 131.322 184.311 133.004 187.314 136L216.008 164.694Z" fill="#F35B04"/>
</svg>
